<svg xmlns="http://www.w3.org/2000/svg" width="29.398" height="20.67" viewBox="0 0 29.398 20.67">
  <path id="youtube" d="M29.833,7.734a3.694,3.694,0,0,0-2.6-2.616C24.942,4.5,15.749,4.5,15.749,4.5s-9.193,0-11.486.618a3.694,3.694,0,0,0-2.6,2.616,38.75,38.75,0,0,0-.614,7.122,38.75,38.75,0,0,0,.614,7.122,3.639,3.639,0,0,0,2.6,2.574c2.293.618,11.486.618,11.486.618s9.193,0,11.486-.618a3.639,3.639,0,0,0,2.6-2.574,38.75,38.75,0,0,0,.614-7.122,38.75,38.75,0,0,0-.614-7.122ZM12.742,19.227V10.485l7.683,4.371-7.683,4.371Z" transform="translate(-1.05 -4.5)" fill="#e13731"/>
</svg>
